# xmcd
#
# Track frame offsets: 
#        150
#        15276
#        26949
#        37689
#        48910
#        59948
#        70764
#        82287
#        94666
#        106118
#        119233
#        133782
#        147888
#        157528
#        167644
#        177273
#        188192
#        198643
#        209931
#        219219
#        230341
#        240991
#        251322
#        263369
#
# Disc length: 3657 seconds
#
# Revision: 0
# Processed by: cddbd v1.5.2PL0 Copyright (c) Steve Scherf et al.
# Submitted via: ExactAudioCopy v0.95b4
#
DISCID=4c0e4718
DTITLE=Reno and Smiley - 1959-1963 [CD1]
DYEAR=2006
DGENRE=Bluegrass
TTITLE0=I Need the Prayers
TTITLE1=In the Garden
TTITLE2=Arm of God
TTITLE3=Jesus Will Save Your Soul
TTITLE4=I Feel Like Traveling On
TTITLE5=Lord's Last Supper
TTITLE6=Little Country Preacher
TTITLE7=You Never Mentioned Him to Me
TTITLE8=He Will Set Your Fields on Fire
TTITLE9=Whispering Hope
TTITLE10=Mother's Only Sleeping
TTITLE11=I'll Meet You in the Morning
TTITLE12=Bells of Saint Mary's
TTITLE13=Steel Guitar Rag
TTITLE14=Tennessee Soup
TTITLE15=Pick and Hold
TTITLE16=Down on the Farm
TTITLE17=Love, Please Come Home
TTITLE18=Bringin' in the Georgia Mail
TTITLE19=Born to Lose
TTITLE20=San Antonio Rose
TTITLE21=When It's Time for the Whippoorwill to Sing
TTITLE22=Please Remember That I Love You
TTITLE23=Unfaithful One
EXTD=
EXTT0=
EXTT1=
EXTT2=
EXTT3=
EXTT4=
EXTT5=
EXTT6=
EXTT7=
EXTT8=
EXTT9=
EXTT10=
EXTT11=
EXTT12=
EXTT13=
EXTT14=
EXTT15=
EXTT16=
EXTT17=
EXTT18=
EXTT19=
EXTT20=
EXTT21=
EXTT22=
EXTT23=
PLAYORDER=
